<svg width="195" height="294" viewBox="0 0 195 294" fill="none" xmlns="http://www.w3.org/2000/svg">
<path d="M168.844 274.979H26.1093V264.144H168.844V274.979" fill="#171717"/>
<path d="M32.7724 288.118C32.7724 291.18 30.2917 293.661 27.2292 293.661C24.1682 293.661 21.6874 291.18 21.6874 288.118V246.145C21.6874 243.085 24.1682 240.603 27.2292 240.603C30.2917 240.603 32.7724 243.085 32.7724 246.145V288.118Z" fill="#414545"/>
<path d="M27.2292 240.603L27.1172 240.615V293.651L27.2292 293.661C30.2917 293.661 32.7724 291.18 32.7724 288.118V246.145C32.7724 243.085 30.2917 240.603 27.2292 240.603Z" fill="#212223"/>
<path d="M172.519 288.118C172.519 291.18 170.036 293.661 166.973 293.661C163.913 293.661 161.431 291.18 161.431 288.118V246.145C161.431 243.085 163.913 240.603 166.973 240.603C170.036 240.603 172.519 243.085 172.519 246.145V288.118Z" fill="#414545"/>
<path d="M166.279 240.673C163.549 241.018 161.431 243.323 161.431 246.145V288.118C161.431 290.941 163.549 293.246 166.279 293.591V240.673Z" fill="#212223"/>
<path d="M135.12 4.64401C135.12 4.64401 132.317 0.718675 126.153 0.438675H109.526H84.6771H68.0511C61.8855 0.718675 59.0834 4.64401 59.0834 4.64401L46.1927 23.6987H84.6771H109.526H148.012L135.12 4.64401" fill="#2C63A8"/>
<path d="M130.847 6.78402C130.847 6.78402 128.36 3.30269 122.887 3.05469H108.129H86.0755H71.3178C65.8454 3.30269 63.3584 6.78402 63.3584 6.78402L51.9167 23.6987H86.0755H108.129H142.288L130.847 6.78402" fill="#251D13"/>
<path d="M4.96613 55.376C8.09119 77.1133 31.7005 241.034 35.9297 262.66C40.4609 285.83 62.2943 284.88 62.2943 284.88H131.912C131.912 284.88 153.744 285.83 158.276 262.66C162.504 241.034 186.113 77.1133 189.239 55.376H4.96613Z" fill="#306CB9"/>
<path d="M188.623 59.6507C188.875 57.9013 189.084 56.456 189.239 55.376H4.96613C5.12079 56.456 5.32973 57.9013 5.58173 59.6507H188.623Z" fill="#1C3A5F"/>
<path d="M102.516 47.4667L188.833 44.8106L175.008 25.38C175.008 25.38 171.645 19.4013 165.295 19.776C160.491 20.0573 121.084 19.9147 102.146 19.8253V19.776C102.146 19.776 100.26 19.7867 97.1016 19.8027C93.9437 19.7867 92.0573 19.776 92.0573 19.776V19.8253C73.1208 19.9147 33.7136 20.0573 28.9099 19.776C22.5599 19.4013 19.1954 25.38 19.1954 25.38L5.36975 44.8106L91.6901 47.4667L91.6849 47.8L97.1016 47.6333L102.521 47.8L102.516 47.4667" fill="#306CB9"/>
<path d="M194.065 58.448H0.140686V41.6347H194.065V58.448Z" fill="#306CB9"/>
<path d="M194.065 45.5573H0.140686V41.6347H194.065V45.5573Z" fill="#3D8CD0"/>
<path d="M194.065 58.448H0.140686V50.9747H194.065V58.448Z" fill="#265794"/>
<path d="M34.8281 21.1773C25.0183 21.1773 21.936 26.5 21.936 26.5L12.1511 39.1933H44.9401L45.1328 39.112C49.6172 28.7426 54.7344 25.7586 67.862 24.82C78.2979 24.0746 150.155 21.9506 160.591 21.204C160.72 21.196 99.4323 21.1773 99.5625 21.1773H34.8281Z" fill="#3D8CD0"/>
<path d="M65.8708 261.341C62.5078 245.087 43.453 62.092 43.453 62.092L11.6599 62.9319C12.2213 64.6133 38.2838 247.048 38.2838 247.048C38.2838 247.048 42.8645 268.977 45.8489 273.67C52.9806 284.88 88.2906 282.079 100.62 282.358C100.62 282.358 69.2344 277.593 65.8708 261.341" fill="#3D8CD0"/>
<path d="M88.862 123.389C88.2552 123.2 87.3297 122.745 86.6979 122.96C86.2891 123.096 86.4609 123.089 86.0625 123.047L86.0781 122.935C86.586 122.872 86.9131 122.547 87.4401 122.625C87.8516 122.685 88.2464 122.771 88.6495 122.857C89.6588 123.096 90.5677 123.552 91.3932 124.169C93.4661 125.733 95.2771 127.552 96.8437 129.623C96.9323 129.749 96.724 129.989 96.6005 129.869C95.8229 129.123 95.2125 128.221 94.3984 127.501C93.5183 126.728 92.6631 125.921 91.776 125.175C90.9036 124.453 89.9584 123.732 88.862 123.389V123.389ZM97.1651 130.315C97.2683 130.445 97.3672 130.583 97.4661 130.711C98.8047 132.532 100.099 134.385 101.352 136.265C101.745 136.849 102.102 137.451 102.445 138.059C101.122 138.669 99.8011 139.269 98.4661 139.844L98.414 139.82C98.2213 139.913 98.0208 140.019 97.8265 140.129C99.1093 140.841 100.57 141.383 101.883 141.913C104.148 142.832 106.437 143.664 108.665 144.661C110.729 145.571 112.862 146.344 115 147.055V147.064C115.125 147.081 115.245 147.107 115.369 147.141C115.443 146.92 115.497 146.696 115.583 146.479H115.57C116.013 145.081 116.472 143.691 116.935 142.309C117.481 140.696 118.031 139.089 118.584 137.484C118.681 136.953 118.885 136.464 119.095 135.975C119.435 135.021 119.748 134.077 120.076 133.133C120.327 132.42 120.576 131.724 120.829 131.021L120.871 130.985C120.945 130.789 121.025 130.591 121.093 130.412L121.071 130.367C120.619 130.575 120.159 130.771 119.681 130.909C118.601 131.416 117.445 131.817 116.331 132.24C115.279 130.779 114.254 129.32 113.219 127.845C112.167 126.36 111.097 124.849 109.831 123.527C109.318 122.993 108.527 122.581 107.961 122.092C107.563 121.751 106.785 121.639 106.614 121.629C103.24 121.475 99.8307 121.732 96.4557 121.827C93.6755 121.915 90.9219 121.645 88.1136 121.956C87.4661 121.879 86.1989 121.915 85.4921 122.248C85.1093 122.42 84.7839 122.701 84.4817 122.985L84.4297 123.053L84.336 123.123C81.7344 125.467 79.7396 128.42 77.5052 131.089C76.7448 131.989 75.9844 132.891 75.2369 133.793C75.3828 133.896 75.5251 134.016 75.6631 134.12L75.6969 134.084C77.8557 135.477 79.8812 137.2 81.9479 138.729C83.8672 140.145 85.7448 141.855 87.8516 143.021V143.039C88.1527 143.228 88.4453 143.424 88.7188 143.623C88.8307 143.432 88.9505 143.235 89.0661 143.031C89.9479 141.492 90.9541 140.033 91.8776 138.524C92.7552 137.099 93.6068 135.672 94.4828 134.248C95.2979 132.951 96.1224 131.484 97.1651 130.315" fill="white"/>
<path d="M129.884 160.437C128.593 162.172 127.451 163.667 125.364 164.472C123.368 165.245 121.305 165.513 119.185 165.401C118.948 165.392 119.048 165.057 119.224 165.013C121.211 164.644 123.267 164.576 125.177 163.837C127.143 163.076 128.357 161.847 129.777 160.344L129.884 160.437ZM130.704 158.267L130.671 158.18L130.667 158.071C130.027 154.628 128.521 151.399 127.399 148.103C127.011 146.977 126.643 145.871 126.251 144.763C126.089 144.815 125.917 144.884 125.755 144.953L125.768 145.005C123.46 146.129 120.937 146.971 118.557 147.94C116.347 148.851 113.918 149.579 111.833 150.773L111.815 150.763C111.505 150.927 111.177 151.057 110.854 151.195C110.971 151.399 111.083 151.596 111.194 151.795C112.051 153.357 112.784 154.972 113.596 156.549C114.356 158.036 115.138 159.493 115.888 160.979C116.584 162.361 117.413 163.82 117.867 165.305C117.703 165.332 117.539 165.348 117.373 165.367C115.128 165.571 112.871 165.708 110.617 165.821C109.913 165.847 109.214 165.837 108.514 165.821C108.677 164.377 108.844 162.935 109.047 161.495L109.094 161.46C109.112 161.237 109.122 161.024 109.128 160.8C107.862 161.529 106.643 162.5 105.502 163.339C103.557 164.809 101.646 166.327 99.6511 167.727C97.7969 169.013 96.0312 170.448 94.3125 171.899L94.0584 172.175C94.2084 172.344 94.3645 172.517 94.5104 172.699C95.4828 173.796 96.4287 174.903 97.3751 176.019C98.4661 177.315 99.5531 178.62 100.638 179.924C101.046 180.276 101.359 180.705 101.659 181.151C102.307 181.924 102.956 182.688 103.602 183.453C104.075 184.036 104.543 184.612 105.017 185.196L105.026 185.248C105.154 185.42 105.273 185.573 105.397 185.737H105.451C105.492 185.239 105.57 184.74 105.698 184.276C105.828 183.092 106.078 181.891 106.305 180.715C108.08 180.569 109.87 180.448 111.66 180.328C113.49 180.191 115.331 180.071 117.112 179.659C117.836 179.495 118.601 179.032 119.312 178.808C119.815 178.645 120.323 178.036 120.407 177.899C122.279 175.092 123.833 172.044 125.499 169.1C126.875 166.688 128.521 164.465 129.708 161.905C130.117 161.391 130.74 160.284 130.82 159.512C130.872 159.091 130.805 158.669 130.704 158.267" fill="white"/>
<path d="M76.5 165.76C74.2084 166.123 71.4036 165.744 69.1901 165.099C67.414 164.576 64.9661 163.976 64.4792 161.916L64.5495 161.88C65.4271 163.727 68.0312 164.327 69.8907 164.748C72.1005 165.228 74.2839 165.177 76.5339 165.348C76.7735 165.375 76.6901 165.727 76.5 165.76ZM92.8688 166.233C92.8437 165.88 92.8437 165.529 92.8437 165.187C92.6251 165.203 92.3932 165.211 92.1667 165.245C90.3932 165.409 88.6172 165.435 86.8516 165.536C85.186 165.656 83.5287 165.777 81.8724 165.88C80.3281 165.967 78.6588 166.131 77.1084 165.949C77.164 165.787 77.2057 165.633 77.2604 165.469C77.9677 163.331 78.7396 161.201 79.5469 159.1C79.7995 158.437 80.0964 157.812 80.388 157.177C81.6459 157.896 82.8984 158.636 84.1396 159.4L84.1473 159.451C84.3489 159.555 84.5469 159.657 84.7448 159.752C84.5833 158.301 84.1823 156.808 83.8593 155.408C83.3115 153.039 82.6719 150.687 82.1901 148.284C81.7536 146.077 81.1536 143.888 80.5052 141.724H80.5156L80.362 141.383C80.1432 141.451 79.9167 141.529 79.7031 141.588V141.605C78.3011 142.033 76.9063 142.472 75.5027 142.893C73.8812 143.372 72.2516 143.836 70.6197 144.317C70.1303 144.541 69.612 144.669 69.0807 144.763C68.1197 145.047 67.1615 145.331 66.1901 145.605C65.4729 145.811 64.7552 146.017 64.0443 146.215L63.9781 146.199C63.7823 146.251 63.5849 146.292 63.3855 146.352L63.3656 146.395C63.8073 146.635 64.2188 146.901 64.6057 147.209C65.6495 147.811 66.6432 148.508 67.6276 149.185C67.0469 150.875 66.4375 152.568 65.8349 154.251C65.224 155.975 64.6016 157.716 64.2552 159.521C64.1172 160.24 64.2369 161.125 64.1683 161.865C64.1172 162.395 64.4645 163.1 64.5584 163.237C66.3828 166.087 68.5573 168.732 70.5703 171.425C72.2421 173.656 73.6197 176.044 75.4869 178.164C75.7943 178.751 76.5677 179.753 77.2421 180.148C77.5989 180.363 78.0068 180.465 78.4167 180.535H78.5156L78.6197 180.587C82.0364 181.367 85.5937 181.281 89.0703 181.573C90.2344 181.668 91.4099 181.787 92.586 181.865C92.5912 181.695 92.6005 181.513 92.6027 181.332L92.5729 181.325C92.4479 178.765 92.6849 176.105 92.7448 173.539C92.8047 171.151 93.1145 168.636 92.8557 166.252L92.8688 166.233" fill="white"/>
</svg>
