<svg width="195" height="294" viewBox="0 0 195 294" fill="none" xmlns="http://www.w3.org/2000/svg">
<path d="M26.9427 274.979H169.677V264.144H26.9427V274.979Z" fill="#171717"/>
<path d="M33.6053 288.118C33.6053 291.18 31.1253 293.661 28.0626 293.661C25.0013 293.661 22.5213 291.18 22.5213 288.118V246.147C22.5213 243.085 25.0013 240.603 28.0626 240.603C31.1253 240.603 33.6053 243.085 33.6053 246.147V288.118Z" fill="#414545"/>
<path d="M28.0626 240.603L27.9506 240.615V293.651L28.0626 293.661C31.1253 293.661 33.6053 291.18 33.6053 288.118V246.147C33.6053 243.085 31.1253 240.603 28.0626 240.603" fill="#212223"/>
<path d="M173.352 288.118C173.352 291.18 170.869 293.661 167.807 293.661C164.747 293.661 162.264 291.18 162.264 288.118V246.147C162.264 243.085 164.747 240.603 167.807 240.603C170.869 240.603 173.352 243.085 173.352 246.147V288.118Z" fill="#414545"/>
<path d="M167.112 240.673C164.383 241.02 162.264 243.323 162.264 246.146V288.118C162.264 290.941 164.383 293.246 167.112 293.591V240.673Z" fill="#212223"/>
<path d="M135.953 4.64134C135.953 4.64134 133.151 0.718675 126.987 0.438675H110.36H85.5107H68.884C62.7186 0.718675 59.9173 4.64134 59.9173 4.64134L47.0266 23.6987H85.5107H110.36H148.845L135.953 4.64134" fill="#32AA59"/>
<path d="M131.68 6.78535C131.68 6.78535 129.193 3.30269 123.72 3.05336H108.963H86.9093H72.1506C66.6786 3.30269 64.192 6.78535 64.192 6.78535L52.7506 23.6987H86.9093H108.963H143.121L131.68 6.78535" fill="#251D13"/>
<path d="M5.79999 55.376C8.92399 77.1133 32.5333 241.035 36.7626 262.66C41.2946 285.83 63.128 284.88 63.128 284.88H132.745C132.745 284.88 154.577 285.83 159.109 262.66C163.337 241.035 186.947 77.1133 190.072 55.376H5.79999Z" fill="#3AB95C"/>
<path d="M189.456 59.6507C189.708 57.9013 189.917 56.456 190.072 55.376H5.79999C5.95465 56.456 6.16267 57.9013 6.416 59.6507H189.456Z" fill="#26773F"/>
<path d="M103.349 47.4653L189.667 44.8106L175.841 25.38C175.841 25.38 172.479 19.4026 166.128 19.7746C161.324 20.0586 121.917 19.9133 102.979 19.8253V19.7746C102.979 19.7746 101.093 19.7853 97.9347 19.8013C94.7773 19.7853 92.8907 19.7746 92.8907 19.7746V19.8253C73.9547 19.9133 34.5467 20.0586 29.744 19.7746C23.3933 19.4026 20.028 25.38 20.028 25.38L6.20267 44.8106L92.524 47.4653L92.5186 47.7987L97.9347 47.6333L103.355 47.7987L103.349 47.4653Z" fill="#3AB95C"/>
<path d="M194.899 58.448H0.973328V41.6347H194.899V58.448Z" fill="#3AB95C"/>
<path d="M194.899 45.5573H0.973328V41.6347H194.899V45.5573Z" fill="#4ABD55"/>
<path d="M194.899 58.448H0.973328V50.9747H194.899V58.448Z" fill="#2E9453"/>
<path d="M45.7733 39.1933H12.9839L22.7693 26.5013C22.7693 26.5013 25.852 21.176 35.6613 21.176H100.396C100.265 21.176 161.553 21.196 161.424 21.204C150.988 21.9493 79.132 24.0746 68.6946 24.8186C55.568 25.756 50.4506 28.744 45.9666 39.1106L45.7733 39.1933Z" fill="#4CBF6B"/>
<path d="M85.06 282.477C70.0826 282.477 51.6213 281.434 46.6827 273.67C43.6973 268.979 39.1173 247.048 39.1173 247.048C39.1173 247.048 13.0546 64.6133 12.4933 62.932L44.2866 62.092C44.2866 62.092 63.3413 245.087 66.704 261.34C70.068 277.593 101.453 282.358 101.453 282.358C100.795 282.343 100.072 282.337 99.2907 282.337C97.432 282.337 95.248 282.372 92.8413 282.406C90.4347 282.443 87.8066 282.477 85.06 282.477" fill="#4CBF6B"/>
<path d="M89.6947 123.389C89.088 123.2 88.1627 122.747 87.5307 122.96C87.1227 123.096 87.2947 123.089 86.896 123.045L86.912 122.935C87.4187 122.873 87.7467 122.548 88.2733 122.627C88.6853 122.685 89.08 122.771 89.4827 122.859C90.492 123.096 91.4013 123.551 92.2267 124.171C94.3 125.733 96.1107 127.551 97.6774 129.621C97.7654 129.749 97.5573 129.991 97.4333 129.869C96.656 129.124 96.0453 128.223 95.232 127.501C94.352 126.728 93.496 125.921 92.6093 125.173C91.7373 124.453 90.792 123.732 89.6947 123.389V123.389ZM97.9987 130.316C98.1013 130.445 98.2 130.583 98.3 130.712C99.6387 132.532 100.932 134.385 102.185 136.265C102.579 136.848 102.935 137.451 103.279 138.059C101.956 138.668 100.635 139.269 99.3 139.845L99.248 139.819C99.0547 139.913 98.8547 140.017 98.66 140.129C99.9427 140.841 101.404 141.381 102.716 141.913C104.981 142.832 107.271 143.665 109.499 144.661C111.563 145.572 113.695 146.343 115.833 147.056V147.064C115.959 147.083 116.079 147.108 116.201 147.143C116.276 146.919 116.331 146.696 116.417 146.48H116.404C116.847 145.083 117.305 143.691 117.768 142.309C118.315 140.696 118.864 139.089 119.417 137.485C119.515 136.952 119.719 136.463 119.928 135.975C120.268 135.021 120.581 134.077 120.909 133.132C121.16 132.421 121.409 131.725 121.663 131.021L121.704 130.985C121.779 130.788 121.859 130.591 121.927 130.412L121.904 130.367C121.452 130.575 120.992 130.772 120.515 130.909C119.435 131.416 118.279 131.817 117.164 132.239C116.112 130.78 115.087 129.321 114.052 127.845C113 126.359 111.931 124.849 110.664 123.527C110.151 122.993 109.361 122.583 108.795 122.092C108.396 121.749 107.619 121.639 107.447 121.629C104.073 121.475 100.664 121.732 97.2893 121.827C94.5093 121.913 91.7547 121.647 88.9467 121.956C88.3 121.879 87.032 121.913 86.3253 122.248C85.9427 122.419 85.6174 122.701 85.3147 122.985L85.2627 123.053L85.1693 123.124C82.568 125.468 80.5733 128.419 78.3387 131.089C77.5787 131.991 76.8173 132.892 76.0707 133.793C76.216 133.897 76.3587 134.016 76.496 134.12L76.5293 134.085C78.6893 135.476 80.7147 137.2 82.7814 138.729C84.7 140.144 86.5787 141.855 88.6853 143.021V143.039C88.9853 143.228 89.2787 143.423 89.552 143.621C89.664 143.432 89.784 143.236 89.9 143.031C90.7813 141.492 91.788 140.033 92.7107 138.523C93.588 137.097 94.44 135.672 95.316 134.249C96.132 132.952 96.956 131.483 97.9987 130.316" fill="white"/>
<path d="M130.717 160.437C129.427 162.172 128.284 163.665 126.197 164.473C124.201 165.247 122.139 165.512 120.019 165.4C119.781 165.392 119.881 165.056 120.057 165.015C122.044 164.644 124.1 164.577 126.011 163.837C127.976 163.075 129.191 161.847 130.611 160.345L130.717 160.437ZM131.537 158.267L131.504 158.181L131.5 158.069C130.86 154.627 129.355 151.399 128.232 148.103C127.844 146.977 127.476 145.871 127.084 144.764C126.923 144.816 126.751 144.884 126.588 144.952L126.601 145.004C124.293 146.129 121.771 146.971 119.391 147.94C117.18 148.851 114.751 149.58 112.667 150.772L112.648 150.764C112.339 150.927 112.011 151.056 111.688 151.195C111.805 151.399 111.917 151.596 112.028 151.795C112.884 153.359 113.617 154.971 114.429 156.549C115.189 158.035 115.972 159.493 116.721 160.979C117.417 162.361 118.247 163.821 118.7 165.307C118.536 165.332 118.372 165.348 118.207 165.367C115.961 165.572 113.704 165.709 111.451 165.821C110.747 165.847 110.047 165.837 109.348 165.821C109.511 164.379 109.677 162.936 109.88 161.493L109.927 161.46C109.945 161.237 109.956 161.023 109.961 160.799C108.695 161.528 107.476 162.499 106.335 163.34C104.391 164.809 102.479 166.327 100.484 167.725C98.6306 169.015 96.864 170.447 95.1453 171.899L94.892 172.173C95.0413 172.344 95.1973 172.517 95.344 172.697C96.316 173.796 97.2613 174.903 98.208 176.02C99.3 177.316 100.387 178.62 101.472 179.925C101.879 180.276 102.193 180.705 102.492 181.152C103.14 181.925 103.789 182.689 104.435 183.452C104.909 184.036 105.376 184.612 105.851 185.196L105.86 185.248C105.987 185.419 106.107 185.575 106.231 185.736H106.284C106.325 185.239 106.404 184.74 106.531 184.276C106.661 183.092 106.912 181.891 107.139 180.715C108.913 180.569 110.703 180.449 112.493 180.328C114.323 180.189 116.164 180.072 117.945 179.66C118.669 179.496 119.435 179.032 120.145 178.809C120.648 178.647 121.156 178.037 121.24 177.899C123.112 175.092 124.667 172.043 126.332 169.1C127.708 166.689 129.355 164.465 130.541 161.905C130.951 161.392 131.573 160.283 131.653 159.512C131.705 159.089 131.639 158.671 131.537 158.267" fill="white"/>
<path d="M77.3333 165.76C75.0413 166.121 72.2373 165.744 70.0239 165.1C68.2479 164.577 65.8 163.976 65.312 161.916L65.3826 161.881C66.26 163.725 68.8639 164.327 70.7239 164.747C72.9333 165.228 75.1173 165.177 77.3666 165.348C77.6066 165.375 77.5239 165.725 77.3333 165.76V165.76ZM93.7013 166.233C93.6773 165.88 93.6773 165.528 93.6773 165.187C93.4586 165.201 93.2266 165.212 92.9999 165.247C91.2266 165.409 89.4506 165.433 87.6853 165.537C86.0199 165.657 84.3613 165.777 82.7053 165.88C81.1613 165.967 79.492 166.131 77.9413 165.949C77.9973 165.788 78.0386 165.633 78.0933 165.468C78.8013 163.332 79.5733 161.201 80.38 159.1C80.6333 158.439 80.9293 157.811 81.2213 157.177C82.4786 157.897 83.7319 158.636 84.9719 159.4L84.98 159.452C85.1826 159.555 85.38 159.657 85.5786 159.752C85.4173 158.301 85.0159 156.807 84.6933 155.408C84.1439 153.039 83.5053 150.687 83.0239 148.283C82.5866 146.077 81.9866 143.887 81.3386 141.724H81.3493L81.1946 141.381C80.9759 141.452 80.7506 141.528 80.5359 141.588V141.605C79.1346 142.033 77.7399 142.473 76.3359 142.893C74.7146 143.373 73.0839 143.835 71.4533 144.316C70.9639 144.54 70.4453 144.668 69.9146 144.764C68.9533 145.045 67.9946 145.331 67.0239 145.605C66.3053 145.811 65.588 146.017 64.8773 146.215L64.8106 146.197C64.616 146.249 64.4173 146.293 64.2186 146.352L64.1986 146.395C64.6399 146.635 65.0519 146.9 65.4386 147.209C66.4826 147.811 67.4759 148.507 68.4613 149.184C67.8799 150.875 67.2706 152.568 66.6679 154.249C66.0573 155.975 65.4346 157.717 65.0879 159.52C64.9506 160.241 65.0706 161.125 65.0013 161.864C64.9506 162.395 65.2986 163.1 65.3919 163.236C67.2159 166.088 69.3906 168.731 71.4039 171.425C73.0759 173.657 74.4533 176.043 76.3199 178.165C76.6279 178.749 77.4013 179.753 78.076 180.147C78.432 180.364 78.8399 180.465 79.2506 180.535H79.3493L79.4533 180.585C82.8693 181.367 86.4266 181.281 89.9039 181.575C91.0679 181.668 92.2439 181.788 93.4186 181.864C93.4239 181.695 93.4333 181.515 93.4359 181.332L93.4066 181.324C93.2813 178.765 93.5186 176.105 93.5786 173.539C93.6386 171.152 93.9479 168.637 93.6893 166.252L93.7013 166.233" fill="white"/>
</svg>
