<svg width="195" height="294" viewBox="0 0 195 294" fill="none" xmlns="http://www.w3.org/2000/svg">
<path d="M26.86 274.977H169.593V264.143H26.86V274.977Z" fill="#171717"/>
<path d="M33.524 288.117C33.524 291.18 31.0413 293.661 27.9813 293.661C24.9187 293.661 22.4373 291.18 22.4373 288.117V246.144C22.4373 243.084 24.9187 240.601 27.9813 240.601C31.0413 240.601 33.524 243.084 33.524 246.144V288.117" fill="#414545"/>
<path d="M27.9813 240.601L27.8667 240.613V293.651L27.9813 293.661C31.0413 293.661 33.5241 291.18 33.5241 288.117V246.144C33.5241 243.084 31.0413 240.601 27.9813 240.601Z" fill="#212223"/>
<path d="M173.268 288.117C173.268 291.18 170.787 293.661 167.727 293.661C164.664 293.661 162.183 291.18 162.183 288.117V246.144C162.183 243.084 164.664 240.601 167.727 240.601C170.787 240.601 173.268 243.084 173.268 246.144V288.117" fill="#414545"/>
<path d="M167.028 240.672C164.3 241.017 162.183 243.322 162.183 246.144V288.117C162.183 290.94 164.3 293.245 167.028 293.591V240.672Z" fill="#212223"/>
<path d="M135.872 4.64133C135.872 4.64133 133.071 0.717322 126.904 0.437322H110.276H85.4293H68.8027C62.636 0.717322 59.8333 4.64133 59.8333 4.64133L46.9426 23.696H85.4293H110.276H148.763L135.872 4.64133" fill="#EC1D3B"/>
<path d="M131.596 6.78267C131.596 6.78267 129.109 3.30134 123.637 3.05334H108.88H86.8253H72.0679C66.5959 3.30134 64.1093 6.78267 64.1093 6.78267L52.6666 23.696H86.8253H108.88H143.039L131.596 6.78267" fill="#251D13"/>
<path d="M5.71863 55.3747C8.84396 77.112 32.4519 241.034 36.6813 262.659C41.2133 285.83 63.044 284.88 63.044 284.88H132.661C132.661 284.88 154.495 285.83 159.025 262.659C163.255 241.034 186.864 77.112 189.989 55.3747H5.71863Z" fill="#EE2B24"/>
<path d="M189.375 59.6493C189.628 57.9 189.833 56.4546 189.989 55.3746H5.71863C5.87196 56.4546 6.08128 57.9 6.33328 59.6493H189.375" fill="#D01E25"/>
<path d="M103.265 47.4653L189.583 44.808L175.76 25.3786C175.76 25.3786 172.396 19.4 166.044 19.7746C161.243 20.056 121.833 19.9133 102.899 19.824V19.7746C102.899 19.7746 101.011 19.7853 97.8546 19.8013C94.6946 19.7853 92.8093 19.7746 92.8093 19.7746L92.8066 19.824C73.8719 19.9133 34.4666 20.056 29.6613 19.7746C23.3093 19.4 19.9479 25.3786 19.9479 25.3786L6.12262 44.808L92.4399 47.4653L92.4346 47.7986L97.8546 47.632L103.271 47.7986L103.265 47.4653" fill="#ED2227"/>
<path d="M0.890686 58.4467H194.815V41.633H0.890686V58.4467Z" fill="#EE2B24"/>
<path d="M0.890686 45.556H194.815V41.6331H0.890686V45.556Z" fill="#F03A28"/>
<path d="M194.815 58.4467H0.890686V50.972H194.815V58.4467" fill="#E82C25"/>
<path d="M45.6933 39.1933H12.9039L22.688 26.4986C22.688 26.4986 25.7706 21.1759 35.5773 21.1759H100.312C100.185 21.1759 161.472 21.1933 161.344 21.2026C150.907 21.9493 79.0493 24.0733 68.6119 24.8186C55.4839 25.756 50.368 28.7413 45.8853 39.1106L45.6933 39.1933" fill="#EE2C2F"/>
<path d="M84.9733 282.476C69.996 282.476 51.54 281.434 46.6013 273.669C43.6146 268.977 39.0333 247.047 39.0333 247.047C39.0333 247.047 12.9707 64.612 12.412 62.932L44.2027 62.0893C44.2027 62.0893 63.26 245.085 66.6227 261.34C69.984 277.592 101.372 282.357 101.372 282.357C100.715 282.343 99.992 282.336 99.2107 282.336C97.352 282.336 95.1653 282.371 92.7587 282.406C90.3493 282.441 87.7213 282.476 84.9733 282.476" fill="#F03A28"/>
<path d="M89.612 123.388C89.0053 123.199 88.0813 122.744 87.448 122.959C87.0386 123.095 87.2133 123.088 86.812 123.045L86.8306 122.933C87.336 122.871 87.664 122.545 88.1907 122.624C88.604 122.684 88.9973 122.769 89.4013 122.856C90.4093 123.095 91.32 123.551 92.1426 124.168C94.216 125.732 96.028 127.551 97.596 129.621C97.6853 129.748 97.4733 129.988 97.352 129.868C96.5733 129.121 95.964 128.22 95.148 127.5C94.268 126.727 93.4147 125.92 92.5267 125.173C91.6533 124.452 90.7106 123.731 89.612 123.388V123.388ZM97.9173 130.313C98.0186 130.444 98.1173 130.581 98.216 130.709C99.5573 132.531 100.849 134.384 102.101 136.264C102.495 136.848 102.852 137.449 103.195 138.057C101.875 138.668 100.552 139.268 99.216 139.843L99.1666 139.819C98.9733 139.912 98.7706 140.017 98.5786 140.128C99.8613 140.84 101.32 141.381 102.633 141.912C104.899 142.831 107.188 143.663 109.417 144.66C111.481 145.569 113.612 146.343 115.752 147.053V147.063C115.875 147.08 115.995 147.105 116.12 147.14C116.193 146.919 116.248 146.695 116.333 146.477H116.323C116.763 145.08 117.224 143.689 117.688 142.308C118.232 140.695 118.781 139.088 119.336 137.483C119.432 136.952 119.636 136.463 119.847 135.973C120.185 135.02 120.497 134.076 120.828 133.132C121.079 132.419 121.325 131.723 121.581 131.02L121.623 130.984C121.695 130.788 121.776 130.589 121.844 130.411L121.82 130.367C121.369 130.573 120.909 130.769 120.432 130.908C119.352 131.415 118.197 131.816 117.081 132.239C116.031 130.777 115.005 129.319 113.969 127.844C112.917 126.359 111.849 124.848 110.584 123.525C110.068 122.992 109.279 122.58 108.711 122.091C108.312 121.749 107.536 121.637 107.364 121.628C103.989 121.473 100.584 121.731 97.2053 121.825C94.4267 121.913 91.672 121.644 88.864 121.955C88.216 121.877 86.9506 121.913 86.2453 122.247C85.86 122.419 85.5333 122.7 85.232 122.984L85.18 123.052L85.088 123.121C82.4867 125.465 80.4893 128.419 78.2547 131.088C77.4947 131.988 76.7346 132.889 75.9866 133.792C76.1333 133.895 76.276 134.015 76.4146 134.119L76.448 134.083C78.6066 135.476 80.6333 137.2 82.6973 138.728C84.62 140.144 86.4973 141.853 88.604 143.02V143.037C88.904 143.227 89.1946 143.423 89.4693 143.621C89.5813 143.431 89.7026 143.233 89.8173 143.029C90.6973 141.491 91.7053 140.033 92.628 138.523C93.5053 137.097 94.3599 135.671 95.2346 134.247C96.0493 132.949 96.872 131.483 97.9173 130.313" fill="white"/>
<path d="M130.636 160.436C129.344 162.171 128.203 163.665 126.115 164.471C124.12 165.244 122.055 165.512 119.935 165.4C119.697 165.391 119.8 165.056 119.973 165.012C121.961 164.644 124.019 164.575 125.927 163.836C127.893 163.075 129.107 161.845 130.528 160.343L130.636 160.436ZM131.456 158.265L131.421 158.179L131.417 158.069C130.779 154.627 129.271 151.397 128.151 148.101C127.76 146.977 127.393 145.869 127 144.761C126.841 144.813 126.669 144.883 126.505 144.952L126.521 145.004C124.211 146.128 121.688 146.969 119.307 147.939C117.099 148.849 114.669 149.577 112.584 150.772L112.565 150.761C112.257 150.925 111.929 151.056 111.604 151.193C111.721 151.397 111.836 151.595 111.945 151.793C112.803 153.356 113.536 154.971 114.347 156.548C115.107 158.035 115.888 159.492 116.639 160.977C117.333 162.36 118.164 163.819 118.617 165.304C118.453 165.331 118.292 165.347 118.125 165.365C115.88 165.569 113.623 165.707 111.367 165.82C110.664 165.845 109.964 165.836 109.265 165.82C109.429 164.376 109.593 162.933 109.797 161.493L109.847 161.459C109.861 161.236 109.875 161.023 109.877 160.799C108.615 161.528 107.393 162.499 106.252 163.337C104.307 164.808 102.399 166.325 100.401 167.725C98.5467 169.012 96.784 170.447 95.0627 171.897L94.8093 172.173C94.9587 172.343 95.1147 172.516 95.26 172.697C96.2347 173.795 97.18 174.901 98.128 176.017C99.216 177.313 100.305 178.619 101.391 179.923C101.797 180.275 102.109 180.704 102.409 181.149C103.057 181.923 103.705 182.687 104.352 183.452C104.828 184.035 105.295 184.611 105.768 185.195L105.776 185.247C105.904 185.419 106.024 185.572 106.148 185.736H106.2C106.243 185.237 106.32 184.739 106.451 184.275C106.579 183.091 106.828 181.889 107.055 180.713C108.831 180.568 110.623 180.447 112.412 180.327C114.24 180.189 116.081 180.069 117.861 179.657C118.588 179.493 119.352 179.031 120.063 178.807C120.565 178.644 121.073 178.035 121.156 177.897C123.031 175.091 124.584 172.043 126.251 169.099C127.628 166.687 129.271 164.464 130.461 161.904C130.867 161.389 131.489 160.283 131.571 159.511C131.623 159.089 131.555 158.668 131.456 158.265" fill="white"/>
<path d="M77.2506 165.759C74.9586 166.121 72.1533 165.743 69.94 165.097C68.164 164.575 65.716 163.975 65.2294 161.915L65.3 161.879C66.1773 163.725 68.784 164.325 70.64 164.747C72.852 165.227 75.036 165.176 77.284 165.347C77.524 165.373 77.44 165.725 77.2506 165.759ZM93.62 166.232C93.5933 165.879 93.5933 165.528 93.5933 165.185C93.3747 165.201 93.1453 165.209 92.9173 165.244C91.1426 165.408 89.3666 165.433 87.6013 165.535C85.9373 165.655 84.2786 165.776 82.6253 165.879C81.0786 165.965 79.4094 166.129 77.86 165.948C77.9174 165.785 77.9587 165.632 78.0107 165.468C78.7187 163.329 79.4893 161.2 80.2973 159.099C80.552 158.436 80.8466 157.811 81.14 157.176C82.396 157.895 83.648 158.635 84.8907 159.399L84.8987 159.449C85.1014 159.553 85.2973 159.656 85.4947 159.751C85.3333 158.3 84.932 156.807 84.6093 155.407C84.0626 153.037 83.4213 150.685 82.9426 148.283C82.5053 146.076 81.904 143.887 81.2547 141.723H81.2654L81.112 141.381C80.896 141.449 80.6666 141.528 80.4533 141.587V141.604C79.052 142.033 77.656 142.471 76.252 142.892C74.6333 143.371 73.0027 143.835 71.3693 144.316C70.88 144.54 70.3613 144.668 69.8333 144.761C68.872 145.045 67.912 145.329 66.94 145.604C66.224 145.809 65.508 146.016 64.7947 146.213L64.7294 146.197C64.5334 146.249 64.336 146.291 64.1387 146.351L64.1173 146.393C64.5573 146.633 64.9693 146.9 65.3573 147.208C66.4013 147.809 67.396 148.507 68.38 149.184C67.7973 150.873 67.1907 152.567 66.5853 154.249C65.9733 155.973 65.352 157.715 65.0053 159.52C64.8667 160.239 64.9893 161.124 64.9187 161.864C64.8667 162.393 65.216 163.099 65.3093 163.236C67.1333 166.085 69.3093 168.731 71.3226 171.424C72.992 173.655 74.372 176.043 76.2373 178.163C76.5466 178.749 77.3173 179.752 77.992 180.147C78.352 180.361 78.7573 180.464 79.1693 180.533H79.268L79.3693 180.585C82.7867 181.367 86.344 181.28 89.82 181.572C90.9866 181.667 92.1613 181.785 93.336 181.864C93.3413 181.693 93.352 181.512 93.3547 181.331L93.3226 181.324C93.2 178.764 93.4347 176.104 93.4973 173.537C93.5547 171.149 93.864 168.635 93.6066 166.251L93.62 166.232" fill="white"/>
</svg>
