<svg width="194" height="294" viewBox="0 0 194 294" fill="none" xmlns="http://www.w3.org/2000/svg">
<path d="M26.0266 274.979H168.76V264.144H26.0266V274.979Z" fill="#171717"/>
<path d="M32.6907 288.118C32.6907 291.18 30.208 293.661 27.1467 293.661C24.0853 293.661 21.604 291.18 21.604 288.118V246.145C21.604 243.085 24.0853 240.603 27.1467 240.603C30.208 240.603 32.6907 243.085 32.6907 246.145V288.118Z" fill="#414545"/>
<path d="M27.1467 240.603L27.0333 240.615V293.651L27.1467 293.661C30.208 293.661 32.6907 291.18 32.6907 288.118V246.145C32.6907 243.085 30.208 240.603 27.1467 240.603Z" fill="#212223"/>
<path d="M172.435 288.118C172.435 291.18 169.953 293.661 166.892 293.661C163.831 293.661 161.349 291.18 161.349 288.118V246.145C161.349 243.085 163.831 240.603 166.892 240.603C169.953 240.603 172.435 243.085 172.435 246.145V288.118Z" fill="#414545"/>
<path d="M166.195 240.673C163.467 241.018 161.349 243.323 161.349 246.145V288.118C161.349 290.941 163.467 293.246 166.195 293.591V240.673Z" fill="#212223"/>
<path d="M135.037 4.64401C135.037 4.64401 132.236 0.718675 126.071 0.438675H109.443H84.5946H67.9693C61.8026 0.718675 59 4.64401 59 4.64401L46.1093 23.6987H84.5946H109.443H147.929L135.037 4.64401Z" fill="#F27B20"/>
<path d="M130.763 6.78402C130.763 6.78402 128.276 3.30269 122.805 3.05469H108.047H85.992H71.2346C65.7626 3.30269 63.276 6.78402 63.276 6.78402L51.8333 23.6987H85.992H108.047H142.205L130.763 6.78402Z" fill="#251D13"/>
<path d="M4.88397 55.376C8.00931 77.1133 31.6173 241.035 35.8466 262.66C40.3786 285.83 62.2106 284.88 62.2106 284.88H131.828C131.828 284.88 153.661 285.83 158.193 262.66C162.421 241.035 186.031 77.1133 189.156 55.376H4.88397Z" fill="#F6BA18"/>
<path d="M188.54 59.6507C188.793 57.9013 189 56.456 189.156 55.376H4.88397C5.03864 56.456 5.24797 57.9013 5.49997 59.6507H188.54Z" fill="#D08318"/>
<path d="M102.432 47.4667L188.751 44.8106L174.925 25.38C174.925 25.38 171.563 19.4013 165.211 19.776C160.409 20.0573 121 19.9147 102.064 19.8253V19.776C102.064 19.776 100.177 19.7867 97.02 19.8027C93.8613 19.7867 91.9746 19.776 91.9746 19.776L91.9733 19.8253C73.0386 19.9147 33.632 20.0573 28.828 19.776C22.476 19.4013 19.1133 25.38 19.1133 25.38L5.28796 44.8106L91.6066 47.4667L91.6013 47.8L97.02 47.6333L102.437 47.8L102.432 47.4667" fill="#F49A1C"/>
<path d="M193.981 58.448H0.057312V41.6347H193.981V58.448Z" fill="#F6BA18"/>
<path d="M193.981 45.5573H0.057312V41.6347H193.981V45.5573Z" fill="#F9D717"/>
<path d="M193.981 58.448H0.057312V50.9747H193.981V58.448Z" fill="#F5A91B"/>
<path d="M34.7453 21.1773C24.936 21.1773 21.8547 26.5 21.8547 26.5L12.0693 39.1933H44.8587L45.0506 39.112C49.5333 28.7426 54.6507 25.7586 67.7787 24.82C78.216 24.0746 150.073 21.9506 160.509 21.204C160.639 21.196 99.3507 21.1773 99.4787 21.1773H34.7453" fill="#F6BA18"/>
<path d="M84.1453 282.477C69.168 282.477 50.7066 281.434 45.7666 273.67C42.7813 268.979 38.2 247.048 38.2 247.048C38.2 247.048 12.1373 64.6133 11.5786 62.932L43.3693 62.092C43.3693 62.092 62.4253 245.087 65.7893 261.341C69.1506 277.593 100.537 282.358 100.537 282.358C99.88 282.343 99.156 282.337 98.376 282.337C96.5173 282.337 94.3319 282.372 91.9266 282.406C89.5186 282.443 86.892 282.477 84.1453 282.477" fill="#F8D117"/>
<path d="M88.7787 123.389C88.172 123.2 87.248 122.745 86.6147 122.96C86.2053 123.096 86.3787 123.089 85.9787 123.047L85.996 122.935C86.5027 122.872 86.8307 122.547 87.3573 122.625C87.7693 122.685 88.164 122.771 88.568 122.857C89.576 123.096 90.4853 123.552 91.3093 124.169C93.3827 125.733 95.1947 127.552 96.7613 129.623C96.8507 129.749 96.64 129.989 96.5187 129.869C95.74 129.123 95.1307 128.221 94.3147 127.501C93.4347 126.728 92.5813 125.921 91.6933 125.175C90.82 124.453 89.876 123.732 88.7787 123.389V123.389ZM97.084 130.315C97.1853 130.445 97.284 130.583 97.3827 130.711C98.7227 132.532 100.016 134.385 101.268 136.265C101.661 136.849 102.019 137.451 102.361 138.059C101.04 138.669 99.7187 139.269 98.3827 139.844L98.332 139.82C98.1387 139.913 97.9373 140.019 97.7453 140.129C99.028 140.841 100.487 141.383 101.8 141.913C104.065 142.832 106.355 143.664 108.584 144.661C110.647 145.571 112.779 146.344 114.917 147.055V147.064C115.041 147.081 115.161 147.107 115.287 147.141C115.36 146.92 115.415 146.696 115.5 146.479H115.488C115.929 145.081 116.391 143.691 116.853 142.309C117.399 140.696 117.948 139.089 118.501 137.484C118.599 136.953 118.803 136.464 119.013 135.975C119.352 135.021 119.664 134.077 119.993 133.133C120.245 132.42 120.492 131.724 120.748 131.021L120.789 130.985C120.861 130.789 120.943 130.591 121.011 130.412L120.987 130.367C120.536 130.575 120.076 130.771 119.599 130.909C118.519 131.416 117.363 131.817 116.248 132.24C115.196 130.779 114.172 129.32 113.136 127.845C112.084 126.36 111.016 124.849 109.749 123.527C109.235 122.993 108.445 122.581 107.877 122.092C107.479 121.751 106.703 121.639 106.531 121.629C103.156 121.475 99.7493 121.732 96.372 121.827C93.5933 121.915 90.8387 121.645 88.0307 121.956C87.3827 121.879 86.1173 121.915 85.4107 122.248C85.0267 122.42 84.7 122.701 84.3987 122.985L84.3467 123.053L84.2533 123.123C81.652 125.467 79.656 128.42 77.4213 131.089C76.6613 131.989 75.9013 132.891 75.1533 133.793C75.3 133.896 75.4427 134.016 75.5813 134.12L75.6147 134.084C77.7733 135.477 79.8 137.2 81.864 138.729C83.7853 140.145 85.6627 141.855 87.7693 143.021V143.039C88.0707 143.228 88.3613 143.424 88.636 143.623C88.748 143.432 88.868 143.235 88.984 143.031C89.864 141.492 90.872 140.033 91.7947 138.524C92.672 137.099 93.5253 135.672 94.4013 134.248C95.216 132.951 96.0386 131.484 97.084 130.315" fill="white"/>
<path d="M129.803 160.437C128.511 162.172 127.368 163.667 125.281 164.472C123.287 165.245 121.221 165.513 119.101 165.401C118.864 165.392 118.967 165.057 119.14 165.013C121.128 164.644 123.185 164.576 125.093 163.837C127.06 163.076 128.273 161.847 129.695 160.344L129.803 160.437ZM130.623 158.267L130.588 158.18L130.584 158.071C129.944 154.628 128.437 151.399 127.316 148.103C126.927 146.977 126.56 145.871 126.167 144.763C126.008 144.815 125.835 144.884 125.672 144.953L125.687 145.005C123.377 146.129 120.855 146.971 118.473 147.94C116.264 148.851 113.836 149.579 111.751 150.773L111.732 150.763C111.423 150.927 111.095 151.057 110.771 151.195C110.888 151.399 111.001 151.596 111.112 151.795C111.969 153.357 112.701 154.972 113.513 156.549C114.273 158.036 115.055 159.493 115.805 160.979C116.5 162.361 117.331 163.82 117.784 165.305C117.62 165.332 117.457 165.348 117.292 165.367C115.045 165.571 112.789 165.708 110.533 165.821C109.831 165.847 109.131 165.837 108.432 165.821C108.595 164.377 108.76 162.935 108.964 161.495L109.012 161.46C109.028 161.237 109.04 161.024 109.044 160.8C107.78 161.529 106.56 162.5 105.419 163.339C103.473 164.809 101.564 166.327 99.568 167.727C97.7133 169.013 95.9493 170.448 94.2293 171.899L93.976 172.175C94.1253 172.344 94.2813 172.517 94.4267 172.699C95.4013 173.796 96.3467 174.903 97.2933 176.019C98.3827 177.315 99.472 178.62 100.556 179.924C100.964 180.276 101.276 180.705 101.576 181.151C102.224 181.924 102.872 182.688 103.519 183.453C103.993 184.036 104.461 184.612 104.935 185.196L104.943 185.248C105.071 185.42 105.191 185.573 105.315 185.737H105.367C105.409 185.239 105.487 184.74 105.616 184.276C105.745 183.092 105.995 181.891 106.221 180.715C107.997 180.569 109.788 180.448 111.579 180.328C113.407 180.191 115.248 180.071 117.028 179.659C117.753 179.495 118.519 179.032 119.229 178.808C119.732 178.645 120.24 178.036 120.323 177.899C122.196 175.092 123.751 172.044 125.417 169.1C126.793 166.688 128.437 164.465 129.627 161.905C130.033 161.391 130.656 160.284 130.737 159.512C130.789 159.091 130.721 158.669 130.623 158.267" fill="white"/>
<path d="M76.4173 165.76C74.1253 166.123 71.32 165.744 69.1066 165.099C67.3306 164.576 64.8826 163.976 64.3959 161.916L64.4666 161.88C65.344 163.727 67.9493 164.327 69.8066 164.748C72.0186 165.228 74.2013 165.177 76.4506 165.348C76.6906 165.375 76.6066 165.727 76.4173 165.76V165.76ZM92.7866 166.233C92.7599 165.88 92.7599 165.529 92.7599 165.187C92.5413 165.203 92.3106 165.211 92.0839 165.245C90.3093 165.409 88.5333 165.435 86.768 165.536C85.104 165.656 83.4453 165.777 81.7906 165.88C80.2453 165.967 78.5759 166.131 77.0266 165.949C77.0826 165.787 77.124 165.633 77.1773 165.469C77.8853 163.331 78.6559 161.201 79.4639 159.1C79.7173 158.437 80.0133 157.812 80.3053 157.177C81.5626 157.896 82.8146 158.636 84.0573 159.4L84.0653 159.451C84.2666 159.555 84.4639 159.657 84.6613 159.752C84.4999 158.301 84.0986 156.808 83.776 155.408C83.2293 153.039 82.588 150.687 82.108 148.284C81.672 146.077 81.0706 143.888 80.4213 141.724H80.4319L80.2786 141.383C80.0613 141.451 79.8333 141.529 79.6199 141.588V141.605C78.2186 142.033 76.8226 142.472 75.4186 142.893C73.7999 143.372 72.1693 143.836 70.536 144.317C70.0466 144.541 69.5279 144.669 68.9986 144.763C68.0373 145.047 67.0786 145.331 66.1066 145.605C65.3906 145.811 64.6733 146.017 63.9613 146.215L63.8959 146.199C63.6999 146.251 63.5026 146.292 63.304 146.352L63.2839 146.395C63.7239 146.635 64.1359 146.901 64.5239 147.209C65.5679 147.811 66.5613 148.508 67.5453 149.185C66.964 150.875 66.3559 152.568 65.7519 154.251C65.1399 155.975 64.5186 157.716 64.172 159.521C64.0333 160.24 64.1546 161.125 64.0853 161.865C64.0333 162.395 64.3826 163.1 64.476 163.237C66.3 166.087 68.4746 168.732 70.4879 171.425C72.1586 173.656 73.5373 176.044 75.404 178.164C75.712 178.751 76.4839 179.753 77.1586 180.148C77.5173 180.363 77.924 180.465 78.3346 180.535H78.4333L78.536 180.587C81.9533 181.367 85.5106 181.281 88.9866 181.573C90.1519 181.668 91.328 181.787 92.5026 181.865C92.508 181.695 92.5186 181.513 92.5213 181.332L92.4893 181.325C92.3653 178.765 92.6013 176.105 92.6626 173.539C92.7213 171.151 93.0306 168.636 92.7733 166.252L92.7866 166.233" fill="white"/>
</svg>
